<svg width="150" height="120" viewBox="0 0 150 120" fill="none" xmlns="http://www.w3.org/2000/svg">
<g clip-path="url(#clip0_306_7)">
<path d="M23.5666 116.765L14.322 101.492C24.5044 94.7927 32.0072 87.5578 36.8305 79.787C41.9217 72.0162 44.4673 62.3697 44.4673 50.8476L40.046 24.3197L56.5254 44.8185C54.1138 47.2301 51.7022 48.9719 49.2905 50.0437C47.1469 51.1155 44.4673 51.6514 41.2518 51.6514C35.6247 51.6514 30.6675 49.9097 26.3801 46.4263C22.0928 42.9428 19.9491 37.9856 19.9491 31.5546C19.9491 24.5877 21.9588 19.0945 25.9782 15.0752C29.9976 11.0558 35.0888 9.04611 41.2518 9.04611C49.2905 9.04611 55.4536 12.2616 59.7409 18.6926C64.2962 24.8556 66.5738 33.8322 66.5738 45.6224C66.5738 61.6998 62.8224 75.6337 55.3196 87.4238C48.0847 98.946 37.5004 108.726 23.5666 116.765ZM94.7094 116.765L85.4649 101.492C95.6473 94.7927 103.15 87.5578 107.973 79.787C113.065 72.0162 115.61 62.3697 115.61 50.8476L111.189 24.3197L127.668 44.8185C125.257 47.2301 122.845 48.9719 120.433 50.0437C118.29 51.1155 115.61 51.6514 112.395 51.6514C106.768 51.6514 101.81 49.9097 97.523 46.4263C93.2356 42.9428 91.092 37.9856 91.092 31.5546C91.092 24.5877 93.1017 19.0945 97.121 15.0752C101.14 11.0558 106.232 9.04611 112.395 9.04611C120.433 9.04611 126.596 12.2616 130.884 18.6926C135.439 24.8556 137.717 33.8322 137.717 45.6224C137.717 61.6998 133.965 75.6337 126.462 87.4238C119.228 98.946 108.643 108.726 94.7094 116.765Z" fill="#282828"/>
</g>
<defs>
<clipPath id="clip0_306_7">
<rect width="150" height="120" fill="white"/>
</clipPath>
</defs>
</svg>
