<svg width="150" height="120" viewBox="0 0 150 120" fill="none" xmlns="http://www.w3.org/2000/svg">
<g clip-path="url(#clip0_306_7)">
<path d="M37.2324 115.157C29.1937 115.157 22.8967 111.942 18.3414 105.511C14.0541 99.08 11.9104 90.1034 11.9104 78.5812C11.9104 62.7717 15.5278 48.9719 22.7627 37.1817C29.9976 25.1236 40.5819 15.2092 54.5157 7.43838L64.1622 23.1139C53.9798 29.5449 46.343 36.6458 41.2518 44.4166C36.1606 52.1874 33.615 61.8338 33.615 73.356L38.4382 99.8839L21.5569 79.3851C24.2365 76.9734 26.6481 75.2317 28.7918 74.1599C31.2034 73.0881 34.0169 72.5522 37.2324 72.5522C42.5916 72.5522 47.4148 74.2939 51.7022 77.7773C56.2574 81.2608 58.5351 86.218 58.5351 92.649C58.5351 99.6159 56.5254 105.109 52.506 109.128C48.4867 113.148 43.3955 115.157 37.2324 115.157ZM108.375 115.157C100.337 115.157 94.0395 111.942 89.4842 105.511C85.1969 99.08 83.0532 90.1034 83.0532 78.5812C83.0532 62.7717 86.6707 48.9719 93.9055 37.1817C101.14 25.1236 111.725 15.2092 125.659 7.43838L135.305 23.1139C125.123 29.5449 117.486 36.6458 112.395 44.4166C107.303 52.1874 104.758 61.8338 104.758 73.356L109.581 99.8839L92.6997 79.3851C95.3793 76.9734 97.7909 75.2317 99.9346 74.1599C102.346 73.0881 105.16 72.5522 108.375 72.5522C113.734 72.5522 118.558 74.2939 122.845 77.7773C127.4 81.2608 129.678 86.218 129.678 92.649C129.678 99.6159 127.668 105.109 123.649 109.128C119.629 113.148 114.538 115.157 108.375 115.157Z" fill="#282828"/>
</g>
<defs>
<clipPath id="clip0_306_7">
<rect width="150" height="120" fill="white"/>
</clipPath>
</defs>
</svg>
