<?xml version="1.0" encoding="UTF-8" standalone="no"?>
<svg
   fill="none"
   viewBox="0 0 101.49605 100.21433"
   version="1.1"
   id="svg12"
   sodipodi:docname="strapi-logo-light.svg"
   width="101.49605"
   height="100.21433"
   inkscape:export-filename="strapi.svg"
   inkscape:export-xdpi="367.3725"
   inkscape:export-ydpi="367.3725"
   xmlns:inkscape="http://www.inkscape.org/namespaces/inkscape"
   xmlns:sodipodi="http://sodipodi.sourceforge.net/DTD/sodipodi-0.dtd"
   xmlns="http://www.w3.org/2000/svg"
   xmlns:svg="http://www.w3.org/2000/svg">
  <sodipodi:namedview
     id="namedview14"
     pagecolor="#505050"
     bordercolor="#eeeeee"
     borderopacity="1"
     inkscape:showpageshadow="0"
     inkscape:pageopacity="0"
     inkscape:pagecheckerboard="0"
     inkscape:deskcolor="#505050"
     showgrid="false" />
  <defs
     id="defs2" />
  <g
     id="g177"
     transform="matrix(3.8840475,0,0,3.8840475,-1.5322021,-18.359893)"
     inkscape:export-filename="./g177.svg"
     inkscape:export-xdpi="367.3725"
     inkscape:export-ydpi="367.3725">
    <path
       fill="#8e75ff"
       fill-rule="evenodd"
       d="M 25.979,4.727 H 8.751 v 8.638 h 8.477 c 0.302,0 0.547,0.245 0.547,0.547 v 8.36 h 8.751 V 5.275 A 0.547,0.547 0 0 0 25.979,4.727 Z"
       clip-rule="evenodd"
       id="path4" />
    <path
       fill="#8e75ff"
       fill-rule="evenodd"
       d="m 8.75,4.727 v 8.638 H 0.668 A 0.274,0.274 0 0 1 0.476,12.896 Z m 9.491,25.723 a 0.274,0.274 0 0 1 -0.466,-0.195 v -7.983 h 8.751 l -8.285,8.177 z"
       clip-rule="evenodd"
       opacity="0.405"
       id="path6" />
    <path
       fill="#8e75ff"
       d="m 8.75,13.365 h 8.752 c 0.15,0 0.273,0.122 0.273,0.273 v 8.634 H 9.298 A 0.547,0.547 0 0 1 8.751,21.725 v -8.36 z"
       opacity="0.405"
       id="path8" />
  </g>
</svg>
