<svg
   viewBox="0 0 477.5697 512"
   version="1.1"
   id="svg6"
   width="477.5697"
   height="512"
   xmlns="http://www.w3.org/2000/svg"
   xmlns:svg="http://www.w3.org/2000/svg">
  <defs
     id="defs10" />
  <style
     id="style2">path { fill: #ffffff; }</style>
  <path
     d="m 347.16057,17.664 c -16.0324,0 -29.93551,3.173081 -42.75309,6.387917 22.46206,9.602734 36.36518,21.376542 43.83861,26.720687 17.11795,14.94687 26.72069,29.935514 43.83864,54.526896 3.17308,5.34413 8.51722,12.81758 11.73205,24.54963 3.21483,10.68827 3.21483,19.24725 3.21483,27.80621 0,11.7738 -1.08552,21.37655 -2.17106,30.9793 -1.04377,7.51519 -1.04377,10.73004 -2.08755,12.85933 0,1.08553 0,2.1293 -1.08553,4.25861 0,5.34413 0,7.5152 1.08553,11.7738 0,4.25862 1.04378,8.55897 1.04378,16.03242 1.08554,13.90311 1.08554,23.50585 -1.04378,35.2379 v 4.30036 c -2.17105,9.60276 -4.30036,19.24724 -9.64449,27.76446 1.08553,2.17105 2.1293,3.21485 3.21482,5.34414 5.34414,-7.47343 9.60276,-14.94688 13.86135,-23.4641 12.85934,-23.5476 20.33279,-43.83863 25.67692,-58.78551 9.60275,-27.80622 14.94689,-48.13899 18.16173,-63.08587 7.47344,-32.06483 8.55895,-47.01171 5.34413,-64.129656 0,-5.344136 -2.12931,-14.988635 -7.47344,-24.591378 C 440.14022,50.772604 421.9785,41.169851 409.16091,34.740188 400.60195,30.48157 378.13987,18.707772 347.16057,17.664 Z m -231.55145,4.71787 c -12.31656,-0.250513 -27.346944,1.127283 -44.214383,9.143491 -5.344136,2.171055 -21.376552,9.64449 -34.194131,26.720687 -8.558963,10.688271 -14.946889,26.720687 -18.161716,44.882392 -3.214836,16.03241 -4.300363,35.32141 2.129309,71.64484 4.258599,25.63516 8.558962,42.7531 17.117934,77.991 1.085527,4.30037 7.473444,23.5476 21.376542,66.30071 l 1.04379,2.12931 c 2.171055,7.47344 8.558963,23.50586 22.46207,39.53827 9.602753,10.68828 18.161725,17.11793 25.676915,17.11793 h 2.08754 c 13.90312,0 23.54761,-10.68827 32.06483,-19.24724 0,-1.08552 20.33278,-25.63515 27.80622,-34.19413 -1.08553,-1.08552 -3.17308,-1.08552 -4.25862,-2.17105 -12.81757,-7.47345 -22.46207,-19.20551 -29.93551,-32.06483 -12.81758,-23.50585 -11.7738,-47.0117 -9.6445,-58.78551 l 1.08554,-18.11996 c -4.25862,-28.89174 -3.1731,-56.65621 2.17105,-84.46243 4.2586,-23.50585 9.60274,-47.011705 28.80823,-71.603093 6.42968,-8.558962 13.90312,-16.032406 21.37655,-21.376551 -17.07618,-7.473435 -35.2379,-11.773789 -53.44137,-12.81757 -3.46533,-0.29226 -7.26468,-0.542773 -11.35629,-0.626266 z m 134.27145,9.143491 c -5.34414,0 -10.68827,0 -16.03241,1.085518 -21.37655,4.258617 -41.66756,16.032416 -57.69998,36.32344 -16.03241,20.332761 -20.29102,39.538251 -24.54964,62.000351 -2.17105,8.55895 -2.17105,16.0324 -3.25658,24.59137 6.42968,-5.34415 14.98864,-11.77379 27.80622,-14.98864 7.47344,-2.12929 26.72068,-8.51722 42.75309,1.08554 5.34414,3.21482 12.81758,9.64449 20.29103,27.8062 16.0324,44.88241 0.0417,90.85034 -2.08755,95.10895 -1.08554,4.25861 -3.21484,7.47346 -4.30037,9.60274 -2.1293,5.34414 -4.2586,9.6445 -6.38791,18.20347 -1.08553,7.47345 -2.17106,13.90312 -2.17106,21.37655 3.21484,0 6.42967,1.04378 9.60275,3.17309 5.34414,5.34414 6.42967,12.85932 7.51519,16.03241 2.12931,17.11794 2.12931,38.4945 2.12931,59.87104 0,17.11793 0,33.15035 1.04377,43.83862 2.17105,24.5914 9.64451,41.66758 20.33278,50.22655 7.47344,6.42967 17.07618,6.3879 22.42032,7.47344 h 2.17106 c 16.03241,0 41.66758,-10.68827 51.27032,-25.63516 5.34413,-8.55897 7.51518,-16.03242 9.64449,-26.72069 1.08554,-6.42966 1.04378,-9.60274 2.12931,-16.03241 0,-3.21483 1.08552,-8.55898 1.08552,-14.94688 0,-5.34414 1.04379,-11.77381 2.12931,-19.289 1.08554,-18.16171 4.25861,-39.49651 5.34413,-51.27032 1.08554,-13.90311 7.47346,-25.67691 12.81759,-33.15035 -7.47344,-1.08553 -14.94689,-7.47344 -19.20549,-18.16172 -6.42968,-11.77379 -7.5152,-14.98864 -8.60073,-20.33277 -1.04378,-4.25861 -3.17308,-9.60274 -10.68827,-25.63515 -16.03242,-36.32344 -18.11996,-47.01172 -18.11996,-55.57069 -1.08554,-11.7738 -2.17105,-27.76445 10.68827,-38.45273 19.20549,-17.11795 43.79687,-16.03241 56.61445,-11.77382 v -2.17105 c -2.1293,-8.51722 -6.3879,-14.94687 -9.60275,-19.2055 C 358.93437,91.396388 350.3754,78.578808 335.38677,65.761238 328.99885,60.417103 312.96645,47.557768 289.46059,39.040551 278.77232,35.825706 265.91298,31.525361 249.88057,31.525361 Z M 368.03611,156.86208 c -7.76571,-0.54277 -17.66071,0.79326 -26.21967,8.30846 -4.25862,4.2586 -4.25862,12.81758 -3.17309,20.29102 0,5.34413 1.04378,12.81758 17.07619,49.18276 7.47344,17.07619 9.60275,22.42033 10.68828,26.72069 1.08553,4.2586 2.12931,6.38792 8.55896,18.11996 1.08554,2.17106 2.12931,4.30036 4.25862,6.42968 2.1293,-3.21483 3.21483,-8.55897 4.2586,-17.11795 l 1.08553,-3.17309 c 2.12931,-9.60274 1.08553,-17.11793 1.08553,-29.9355 0,-6.42967 -1.08553,-10.68829 -1.08553,-13.90311 -1.08553,-5.34414 -1.08553,-9.60275 -1.08553,-16.03242 -2.1293,-3.21483 -2.1293,-4.25861 -1.04377,-6.42968 0,-2.12929 1.04377,-5.30236 2.1293,-11.73204 1.08553,-8.55897 2.17106,-16.03241 2.17106,-24.59138 -2.17106,-1.08553 -3.21482,-2.1293 -5.34413,-3.17307 0,0 -5.6364,-2.42157 -13.36035,-2.96433 z m -167.12955,4.21685 c -6.80543,-0.79326 -14.61287,1.41954 -19.41424,3.00607 -11.77381,3.21485 -19.2055,10.68828 -24.54963,14.94689 -3.21484,3.21484 -6.42967,6.42967 -9.6445,10.68828 0,7.47344 1.04377,14.98864 2.1293,22.46208 v 1.08553 l -2.1293,21.37654 c -2.12931,9.60275 -3.21484,27.76447 7.47345,45.92619 5.34413,10.68827 12.85932,19.24724 22.46206,24.59137 6.42967,4.25862 14.9469,7.47344 24.54964,9.64451 0,-7.5152 1.08552,-16.07416 2.17105,-23.54761 2.12931,-10.68827 4.25861,-16.03241 7.47344,-22.46208 1.08553,-3.17309 2.12931,-5.30238 4.30037,-8.51722 1.04377,-3.21483 15.99065,-43.83862 2.08754,-81.24759 -3.17308,-8.55896 -6.38791,-13.9031 -10.68827,-16.03241 -1.83705,-1.08553 -4.0081,-1.67004 -6.22091,-1.92055 z m 156.81703,6.09566 c 2.79733,-0.167 5.46939,0.0835 6.55492,1.16903 3.21484,2.12931 -1.08553,7.47344 -2.17105,8.55896 -1.04379,1.08554 -3.17309,3.21484 -6.38792,4.30037 -4.2586,1.04378 -7.47345,-2.17106 -8.55897,-2.17106 -1.08553,-1.08552 -4.25861,-4.25861 -3.17307,-7.47344 1.04376,-2.12931 2.1293,-2.12931 6.3879,-3.21483 1.58655,-0.54276 4.55087,-1.04377 7.34819,-1.16903 z m -160.65812,8.85123 c 3.59059,-0.25051 6.59667,1.12728 9.01823,1.92055 3.21482,1.08552 6.38791,2.17105 6.38791,4.30036 1.08553,3.21483 -2.08755,5.34413 -3.17309,6.38791 -3.21482,3.21484 -8.55896,3.25659 -8.55896,3.25659 -5.34415,0 -8.55896,-3.21484 -10.68828,-6.42967 -1.08551,-1.08553 -2.12931,-3.21483 -1.04377,-5.34414 1.04377,-2.1293 3.17309,-3.21484 4.2586,-3.21484 1.33604,-0.54275 2.58858,-0.79327 3.79936,-0.87676 z m 196.06304,139.82434 c -5.34415,7.47345 -12.81759,17.11795 -13.90311,29.93552 0,2.12931 0,3.21484 -1.08553,5.34414 8.55897,2.1293 16.07417,2.1293 23.5476,1.08553 17.11794,-2.17106 28.85,-10.73003 30.9793,-12.85934 7.47345,-5.34413 17.11793,-16.0324 14.94688,-20.29102 -1.04377,-2.1293 -4.2586,-1.08553 -21.37655,0 -4.2586,0 -17.07619,3.21485 -25.63515,1.08554 h -2.12931 c -2.12931,-1.08554 -4.2586,-2.17107 -5.34413,-4.30037 z m -186.00104,21.37655 c -2.1293,3.21483 -5.30238,5.34414 -7.43169,7.47345 -8.55896,5.34413 -19.289,9.6445 -29.97727,11.77379 -9.60274,3.21485 -14.94687,3.21485 -14.94687,6.42967 -1.08555,4.25861 9.60273,9.60275 14.94687,11.73206 18.20346,7.47344 36.36519,3.21482 39.58001,2.1293 2.12931,-1.08554 7.47345,-3.21483 12.81758,-6.42967 0,-11.73205 -1.04376,-22.42032 -2.12931,-30.9793 v -1.08553 h -1.08552 c -3.21482,0 -7.47344,0.0417 -11.7738,-1.04377 z"
     id="path4"
     style="stroke-width:10.6883" />
</svg>
